<?xml version="1.0" encoding="UTF-8"?>
<svg id="Layer_1" data-name="Layer 1" xmlns="http://www.w3.org/2000/svg" viewBox="0 0 200 70">
  <defs>
    <style>
      .cls-1 {
        fill: #26336d;
      }

      .cls-2 {
        fill: #fbee23;
      }
    </style>
  </defs>
  <path class="cls-1" d="M9.6,32.17h-.19c-1.6,0-1.96-1.43-2.2-2.37-.15-.58-.34-1.39-.59-2.42-.24-1.02-.51-2.14-.81-3.38-.39-1.61-.53-2.07-.57-2.19l-.54-1.64,1.54-.77c1.07-.54,2.08-1.03,3.02-1.49,.98-.47,2.02-.93,3.1-1.35,1.11-.44,2.19-.79,3.21-1.05,.88-.23,1.8-.34,2.73-.34,1.92,0,2.6,.12,3.02,.23,.85,.25,1.63,.63,2.35,1.15,.73,.53,1.38,1.23,1.93,2.08,.52,.8,.94,1.75,1.26,2.8,.16,.56,.24,1.13,.24,1.71,0,1.82-.59,3.91-1.82,6.4-1.11,2.26-2.24,4.25-3.37,5.94-.8,1.21-1.45,2.15-1.96,2.87l2.39,12.73-6.69,7.33-6.05-26.23Z"/>
  <path class="cls-2" d="M7.16,21.18c1.06-.53,2.06-1.03,2.99-1.48,.93-.45,1.92-.88,2.95-1.29,1.04-.41,2.03-.73,2.97-.97,.73-.19,1.47-.28,2.24-.28,1.27,0,2.1,.05,2.5,.16,.6,.17,1.16,.45,1.69,.84,.53,.39,1,.9,1.42,1.55,.42,.65,.76,1.41,1.02,2.29,.1,.36,.16,.74,.16,1.14,0,1.49-.54,3.33-1.61,5.51-1.07,2.18-2.15,4.09-3.24,5.71-1.08,1.62-1.89,2.79-2.43,3.5l2.37,12.6-3.45,3.78-6.04-26.19s-.1,.13-.25,.38c-.15,.25-.34,.58-.59,.99-.24,.41-.39,.66-.45,.75-.03,0-.11-.29-.26-.86-.15-.57-.34-1.37-.58-2.39s-.51-2.15-.82-3.4c-.3-1.25-.51-2.03-.61-2.35Zm8.51,5.55l1.08,5.89c.54-.84,1.22-1.98,2.03-3.44s1.21-2.5,1.21-3.16c0-.25-.07-.4-.21-.44-.39-.13-.79-.2-1.17-.2-1.16,0-2.14,.45-2.93,1.34Z"/>
  <path class="cls-1" d="M42.34,55.74c-1.07,0-2.1-.25-3.05-.76-.9-.48-1.69-1.11-2.33-1.88-.98-1.23-1.72-2.82-2.22-4.75-.48-1.83-.72-3.78-.72-5.81,0-3.57,.72-6.54,2.13-8.82,1.18-1.92,2.4-3.34,3.72-4.36,1.47-1.13,3.03-1.7,4.64-1.7,.94,0,1.86,.18,2.73,.54,.82,.34,1.66,.86,2.5,1.56,.85,.69,1.55,1.62,2.07,2.76,.46,1.01,.8,2.16,1.01,3.39,.2,1.18,.3,2.41,.3,3.68,0,1.03-.06,2.04-.16,3-.11,.97-.26,1.87-.46,2.69-.21,.88-.45,1.62-.75,2.27-.59,1.34-1.25,2.54-1.96,3.55-.73,1.04-1.5,1.91-2.29,2.57-.82,.69-1.65,1.21-2.49,1.54-.88,.35-1.78,.53-2.66,.53Zm1.55-15.62c.07,.1,.14,.17,.2,.24,.28,.27,.46,.38,.56,.43,.03-.03,.07-.07,.12-.13s.09-.13,.14-.2c-.36-.04-.7-.16-1.01-.33Z"/>
  <path class="cls-2" d="M48.45,31.29c.62,.51,1.13,1.19,1.52,2.05,.39,.86,.68,1.82,.86,2.9,.18,1.07,.27,2.19,.27,3.35,0,.96-.05,1.88-.15,2.78-.1,.89-.24,1.71-.41,2.46-.18,.75-.38,1.38-.62,1.9-.55,1.25-1.14,2.33-1.78,3.24-.63,.91-1.28,1.63-1.93,2.19s-1.31,.96-1.95,1.22c-.65,.26-1.28,.39-1.91,.39-.75,0-1.45-.18-2.12-.53-.67-.35-1.24-.82-1.72-1.39-.78-.99-1.39-2.31-1.83-3.99-.44-1.67-.66-3.44-.66-5.3,0-3.21,.61-5.8,1.83-7.77,1.04-1.69,2.12-2.97,3.24-3.83,1.11-.86,2.25-1.29,3.42-1.29,.68,0,1.34,.13,1.97,.39,.63,.26,1.29,.68,1.99,1.25Zm-.78,3.36c-.15,1.01-.47,1.9-.97,2.68s-.98,1.16-1.45,1.16c-.24,0-.45-.09-.63-.28-.26-.32-.39-.88-.39-1.68,0-.61,.13-1.22,.4-1.82,.27-.6,.69-1.07,1.27-1.42-.58,0-1.14,.17-1.68,.5-.54,.33-1,.76-1.39,1.29-.39,.53-.7,1.12-.93,1.78-.23,.66-.35,1.32-.35,1.99,0,1.24,.38,2.22,1.13,2.96,.7,.68,1.37,1.02,2,1.02s1.18-.32,1.66-.95,.85-1.44,1.1-2.44,.38-1.97,.38-2.95c0-.67-.05-1.28-.16-1.84Z"/>
  <polygon class="cls-1" points="72.97 53.84 73.19 60.25 62.93 60.55 61.77 26.56 59.34 27.38 60.52 18.35 70.92 11.74 71.87 34.23 75.02 31.61 84.93 33.87 76.45 43.74 82.79 50.99 83.35 65.16 72.97 53.84"/>
  <path class="cls-2" d="M62.39,19.54l6.68-4.25,.97,23.07,5.5-4.57,5.71,1.3-7.45,8.67,7.01,8.03,.32,8.01-10.34-11.29,.33,9.81-6.26,.18-1.18-34.7-1.93,.66,.65-4.91Z"/>
  <path class="cls-1" d="M97.92,55.78c-1.47,0-2.82-.31-4.01-.92-1.28-.66-2.28-1.66-2.96-2.97-1-1.9-1.5-4.31-1.5-7.15,0-2.15,.26-4.3,.78-6.38,.55-2.23,1.13-3.73,1.82-4.72,.74-1.07,1.57-1.98,2.46-2.71,.91-.75,1.89-1.32,2.89-1.7,1.03-.39,2.1-.59,3.2-.59,1.44,0,2.83,.35,4.12,1.05,1.26,.68,2.38,1.66,3.3,2.92l.76,1.03-3.58,6.48,3.97,7.28-.17,.74c-.34,1.49-1.13,2.86-2.36,4.06-1.13,1.11-2.49,1.99-4.03,2.63-1.55,.64-3.13,.96-4.69,.96Zm-6.86-33.54l10.2-8.57,4.97,11.59-12.4,3.58-2.77-6.59Z"/>
  <path class="cls-2" d="M103.88,41.87l3.17,5.81c-.25,1.12-.86,2.14-1.81,3.08-.95,.93-2.08,1.67-3.39,2.21-1.31,.54-2.62,.81-3.93,.81-1.16,0-2.19-.23-3.1-.7-.91-.47-1.61-1.17-2.1-2.12-.85-1.62-1.28-3.7-1.28-6.23,0-2,.24-3.96,.72-5.9s.98-3.29,1.52-4.06c.64-.92,1.34-1.68,2.08-2.3,.75-.61,1.53-1.07,2.34-1.38,.81-.31,1.64-.46,2.49-.46,1.11,0,2.17,.27,3.18,.81s1.88,1.32,2.64,2.35l-7.22,13.08c.64,0,1.25-.2,1.82-.61,.57-.41,1.1-.99,1.59-1.74,.48-.75,.91-1.63,1.29-2.65Zm-10.41-19.06l7.01-5.89,3.01,7.03-8.51,2.46-1.51-3.6Zm6.76,14.4c-.43-.33-.87-.5-1.32-.5-.47,0-.93,.15-1.37,.44s-.76,.64-.94,1.04c-.54,1.07-.82,2.24-.82,3.51,0,.47,.03,.91,.09,1.34,.06,.43,.17,1.01,.32,1.76l4.04-7.59Z"/>
  <path class="cls-1" d="M125.43,55.67c-.31,.04-.61,.06-.92,.06-1.08,0-2.1-.25-3.05-.75-.9-.47-1.68-1.11-2.33-1.9-.97-1.23-1.71-2.82-2.22-4.75-.48-1.83-.72-3.78-.72-5.81,0-3.57,.72-6.54,2.13-8.82,1.2-1.91,2.42-3.33,3.73-4.35,1.08-.84,2.21-1.37,3.37-1.59l-.11-14.85,9.46-6.46,.37,30.69c.07,.73,.11,1.56,.11,2.47,0,.77-.02,1.36-.05,1.79l.18,14.01-9.95,.81v-.55Z"/>
  <path class="cls-2" d="M127.31,13.97l5.5-3.75,.33,27.04c.07,.69,.11,1.48,.11,2.36,0,.77-.02,1.34-.05,1.72l.16,12.24-5.92,.48v-1.22c-.96,.6-1.94,.9-2.92,.9-.75,0-1.46-.17-2.12-.52-.66-.35-1.23-.81-1.72-1.4-.78-.99-1.39-2.31-1.83-3.99-.44-1.67-.66-3.44-.66-5.3,0-3.21,.61-5.8,1.83-7.77,1.05-1.68,2.14-2.95,3.26-3.82,1.12-.87,2.26-1.3,3.43-1.3,.32,0,.57,.01,.74,.04l-.12-15.72Zm.12,19.4c-.48,.09-.96,.33-1.43,.7-.47,.37-.87,.81-1.2,1.32s-.59,1.06-.78,1.67c-.19,.61-.28,1.2-.28,1.79,0,1.21,.38,2.2,1.13,2.96,.67,.68,1.34,1.02,2.03,1.02,.13,0,.31-.03,.54-.08v-4.25c-.24,0-.45-.09-.63-.28-.26-.32-.39-.93-.39-1.84,0-1.3,.34-2.3,1.03-3Z"/>
  <path class="cls-1" d="M151.81,55.78c-1.47,0-2.82-.31-4.01-.92-1.28-.66-2.28-1.66-2.96-2.97-1-1.9-1.5-4.31-1.5-7.15,0-2.15,.26-4.29,.78-6.38,.55-2.23,1.13-3.73,1.82-4.73,.75-1.07,1.57-1.98,2.46-2.71,.91-.75,1.88-1.32,2.89-1.7,1.03-.39,2.1-.59,3.2-.59,1.44,0,2.83,.35,4.12,1.05,1.26,.68,2.37,1.66,3.3,2.92l.76,1.03-3.58,6.48,3.97,7.28-.17,.74c-.34,1.5-1.13,2.86-2.36,4.06-1.13,1.11-2.49,1.99-4.03,2.63-1.55,.64-3.13,.96-4.69,.96Z"/>
  <path class="cls-2" d="M157.77,41.87l3.17,5.81c-.25,1.12-.86,2.14-1.81,3.08-.95,.93-2.08,1.67-3.39,2.21-1.31,.54-2.62,.81-3.93,.81-1.16,0-2.19-.23-3.1-.7-.91-.47-1.61-1.17-2.1-2.12-.85-1.62-1.28-3.7-1.28-6.23,0-2,.24-3.96,.72-5.9,.48-1.94,.98-3.29,1.52-4.06,.64-.92,1.34-1.68,2.09-2.3,.75-.61,1.53-1.07,2.33-1.38s1.64-.46,2.49-.46c1.11,0,2.17,.27,3.18,.81,1,.54,1.88,1.32,2.64,2.35l-7.22,13.08c.64,0,1.25-.2,1.82-.61,.57-.41,1.1-.99,1.58-1.74,.48-.75,.91-1.63,1.29-2.65Zm-3.64-4.65c-.43-.33-.87-.5-1.32-.5-.47,0-.93,.15-1.38,.44-.44,.29-.76,.64-.94,1.04-.54,1.07-.82,2.24-.82,3.51,0,.47,.03,.91,.09,1.34,.06,.43,.17,1.01,.32,1.76l4.04-7.59Z"/>
  <polygon class="cls-1" points="176.38 42.5 167.81 25.66 179.68 26.45 182.01 31.13 184.34 26.45 196.22 25.66 187.65 42.5 195.3 57.85 183.93 57.32 182.01 53.54 180.09 57.32 168.73 57.85 176.38 42.5"/>
  <path class="cls-2" d="M182.02,49.12l-3.18,6.25-6.79,.32,6.58-13.2-7.43-14.6,7.21,.48,3.62,7.25,3.61-7.25,7.22-.48-7.43,14.6,6.58,13.2-6.8-.32-3.17-6.25Z"/>
</svg>